# Blender v2.83.1 OBJ File: ''
# www.blender.org
mtllib Aurora.mtl
o Plane
v -24.999996 0.000000 -2.000000
v 24.999996 0.000000 -2.000000
v -24.999996 0.000000 2.000000
v 24.999996 0.000000 2.000000
v -24.504948 0.000000 -2.000000
v -24.009899 0.000000 -2.000000
v -23.514849 0.000000 -2.000000
v -23.019800 0.000000 -2.000000
v -22.524750 0.000000 -2.000000
v -22.029701 0.000000 -2.000000
v -21.534651 0.000000 -2.000000
v -21.039602 0.000000 -2.000000
v -20.544552 0.000000 -2.000000
v -20.049503 0.000000 -2.000000
v -19.554455 0.000000 -2.000000
v -19.059404 0.000000 -2.000000
v -18.564358 0.000000 -2.000000
v -18.069307 0.000000 -2.000000
v -17.574259 0.000000 -2.000000
v -17.079208 0.000000 -2.000000
v -16.584160 0.000000 -2.000000
v -16.089109 0.000000 -2.000000
v -15.594061 0.000000 -2.000000
v -15.099011 0.000000 -2.000000
v -14.603962 0.000000 -2.000000
v -14.108912 0.000000 -2.000000
v -13.613863 0.000000 -2.000000
v -13.118814 0.000000 -2.000000
v -12.623765 0.000000 -2.000000
v -12.128716 0.000000 -2.000000
v -11.633666 0.000000 -2.000000
v -11.138617 0.000000 -2.000000
v -10.643567 0.000000 -2.000000
v -10.148518 0.000000 -2.000000
v -9.653468 0.000000 -2.000000
v -9.158420 0.000000 -2.000000
v -8.663370 0.000000 -2.000000
v -8.168321 0.000000 -2.000000
v -7.673272 0.000000 -2.000000
v -7.178222 0.000000 -2.000000
v -6.683173 0.000000 -2.000000
v -6.188123 0.000000 -2.000000
v -5.693074 0.000000 -2.000000
v -5.198024 0.000000 -2.000000
v -4.702974 0.000000 -2.000000
v -4.207925 0.000000 -2.000000
v -3.712875 0.000000 -2.000000
v -3.217826 0.000000 -2.000000
v -2.722776 0.000000 -2.000000
v -2.227727 0.000000 -2.000000
v -1.732677 0.000000 -2.000000
v -1.237628 0.000000 -2.000000
v -0.742578 0.000000 -2.000000
v -0.247529 0.000000 -2.000000
v 0.247521 0.000000 -2.000000
v 0.742570 0.000000 -2.000000
v 1.237620 0.000000 -2.000000
v 1.732669 0.000000 -2.000000
v 2.227719 0.000000 -2.000000
v 2.722768 0.000000 -2.000000
v 3.217818 0.000000 -2.000000
v 3.712867 0.000000 -2.000000
v 4.207917 0.000000 -2.000000
v 4.702966 0.000000 -2.000000
v 5.198016 0.000000 -2.000000
v 5.693066 0.000000 -2.000000
v 6.188116 0.000000 -2.000000
v 6.683165 0.000000 -2.000000
v 7.178214 0.000000 -2.000000
v 7.673264 0.000000 -2.000000
v 8.168313 0.000000 -2.000000
v 8.663363 0.000000 -2.000000
v 9.158412 0.000000 -2.000000
v 9.653461 0.000000 -2.000000
v 10.148510 0.000000 -2.000000
v 10.643559 0.000000 -2.000000
v 11.138608 0.000000 -2.000000
v 11.633657 0.000000 -2.000000
v 12.128707 0.000000 -2.000000
v 12.623757 0.000000 -2.000000
v 13.118807 0.000000 -2.000000
v 13.613855 0.000000 -2.000000
v 14.108905 0.000000 -2.000000
v 14.603954 0.000000 -2.000000
v 15.099004 0.000000 -2.000000
v 15.594053 0.000000 -2.000000
v 16.089102 0.000000 -2.000000
v 16.584152 0.000000 -2.000000
v 17.079201 0.000000 -2.000000
v 17.574251 0.000000 -2.000000
v 18.069300 0.000000 -2.000000
v 18.564350 0.000000 -2.000000
v 19.059397 0.000000 -2.000000
v 19.554447 0.000000 -2.000000
v 20.049496 0.000000 -2.000000
v 20.544546 0.000000 -2.000000
v 21.039597 0.000000 -2.000000
v 21.534645 0.000000 -2.000000
v 22.029696 0.000000 -2.000000
v 22.524748 0.000000 -2.000000
v 23.019796 0.000000 -2.000000
v 23.514847 0.000000 -2.000000
v 24.009897 0.000000 -2.000000
v 24.504948 0.000000 -2.000000
v 24.504948 0.000000 2.000000
v 24.009899 0.000000 2.000000
v 23.514849 0.000000 2.000000
v 23.019800 0.000000 2.000000
v 22.524750 0.000000 2.000000
v 22.029701 0.000000 2.000000
v 21.534651 0.000000 2.000000
v 21.039602 0.000000 2.000000
v 20.544552 0.000000 2.000000
v 20.049503 0.000000 2.000000
v 19.554455 0.000000 2.000000
v 19.059404 0.000000 2.000000
v 18.564358 0.000000 2.000000
v 18.069307 0.000000 2.000000
v 17.574259 0.000000 2.000000
v 17.079208 0.000000 2.000000
v 16.584160 0.000000 2.000000
v 16.089109 0.000000 2.000000
v 15.594061 0.000000 2.000000
v 15.099011 0.000000 2.000000
v 14.603962 0.000000 2.000000
v 14.108912 0.000000 2.000000
v 13.613863 0.000000 2.000000
v 13.118814 0.000000 2.000000
v 12.623765 0.000000 2.000000
v 12.128716 0.000000 2.000000
v 11.633666 0.000000 2.000000
v 11.138617 0.000000 2.000000
v 10.643567 0.000000 2.000000
v 10.148518 0.000000 2.000000
v 9.653468 0.000000 2.000000
v 9.158420 0.000000 2.000000
v 8.663370 0.000000 2.000000
v 8.168321 0.000000 2.000000
v 7.673272 0.000000 2.000000
v 7.178222 0.000000 2.000000
v 6.683173 0.000000 2.000000
v 6.188123 0.000000 2.000000
v 5.693074 0.000000 2.000000
v 5.198024 0.000000 2.000000
v 4.702974 0.000000 2.000000
v 4.207925 0.000000 2.000000
v 3.712875 0.000000 2.000000
v 3.217826 0.000000 2.000000
v 2.722776 0.000000 2.000000
v 2.227727 0.000000 2.000000
v 1.732677 0.000000 2.000000
v 1.237628 0.000000 2.000000
v 0.742578 0.000000 2.000000
v 0.247529 0.000000 2.000000
v -0.247521 0.000000 2.000000
v -0.742570 0.000000 2.000000
v -1.237620 0.000000 2.000000
v -1.732669 0.000000 2.000000
v -2.227719 0.000000 2.000000
v -2.722768 0.000000 2.000000
v -3.217818 0.000000 2.000000
v -3.712867 0.000000 2.000000
v -4.207917 0.000000 2.000000
v -4.702966 0.000000 2.000000
v -5.198016 0.000000 2.000000
v -5.693066 0.000000 2.000000
v -6.188116 0.000000 2.000000
v -6.683165 0.000000 2.000000
v -7.178214 0.000000 2.000000
v -7.673264 0.000000 2.000000
v -8.168313 0.000000 2.000000
v -8.663363 0.000000 2.000000
v -9.158412 0.000000 2.000000
v -9.653461 0.000000 2.000000
v -10.148510 0.000000 2.000000
v -10.643559 0.000000 2.000000
v -11.138608 0.000000 2.000000
v -11.633657 0.000000 2.000000
v -12.128707 0.000000 2.000000
v -12.623757 0.000000 2.000000
v -13.118807 0.000000 2.000000
v -13.613855 0.000000 2.000000
v -14.108905 0.000000 2.000000
v -14.603954 0.000000 2.000000
v -15.099004 0.000000 2.000000
v -15.594053 0.000000 2.000000
v -16.089102 0.000000 2.000000
v -16.584152 0.000000 2.000000
v -17.079201 0.000000 2.000000
v -17.574251 0.000000 2.000000
v -18.069300 0.000000 2.000000
v -18.564350 0.000000 2.000000
v -19.059397 0.000000 2.000000
v -19.554447 0.000000 2.000000
v -20.049496 0.000000 2.000000
v -20.544546 0.000000 2.000000
v -21.039597 0.000000 2.000000
v -21.534645 0.000000 2.000000
v -22.029696 0.000000 2.000000
v -22.524748 0.000000 2.000000
v -23.019796 0.000000 2.000000
v -23.514847 0.000000 2.000000
v -24.009897 0.000000 2.000000
v -24.504948 0.000000 2.000000
vt 0.990099 0.000000
vt 1.000000 0.000000
vt 1.000000 1.000000
vt 0.990099 1.000000
vt 0.000000 0.000000
vt 0.009901 0.000000
vt 0.009901 1.000000
vt 0.000000 1.000000
vt 0.019802 0.000000
vt 0.019802 1.000000
vt 0.029703 0.000000
vt 0.029703 1.000000
vt 0.039604 0.000000
vt 0.039604 1.000000
vt 0.049505 0.000000
vt 0.049505 1.000000
vt 0.059406 0.000000
vt 0.059406 1.000000
vt 0.069307 0.000000
vt 0.069307 1.000000
vt 0.079208 0.000000
vt 0.079208 1.000000
vt 0.089109 0.000000
vt 0.089109 1.000000
vt 0.099010 0.000000
vt 0.099010 1.000000
vt 0.108911 0.000000
vt 0.108911 1.000000
vt 0.118812 0.000000
vt 0.118812 1.000000
vt 0.128713 0.000000
vt 0.128713 1.000000
vt 0.138614 0.000000
vt 0.138614 1.000000
vt 0.148515 0.000000
vt 0.148515 1.000000
vt 0.158416 0.000000
vt 0.158416 1.000000
vt 0.168317 0.000000
vt 0.168317 1.000000
vt 0.178218 0.000000
vt 0.178218 1.000000
vt 0.188119 0.000000
vt 0.188119 1.000000
vt 0.198020 0.000000
vt 0.198020 1.000000
vt 0.207921 0.000000
vt 0.207921 1.000000
vt 0.217822 0.000000
vt 0.217822 1.000000
vt 0.227723 0.000000
vt 0.227723 1.000000
vt 0.237624 0.000000
vt 0.237624 1.000000
vt 0.247525 0.000000
vt 0.247525 1.000000
vt 0.257426 0.000000
vt 0.257426 1.000000
vt 0.267327 0.000000
vt 0.267327 1.000000
vt 0.277228 0.000000
vt 0.277228 1.000000
vt 0.287129 0.000000
vt 0.287129 1.000000
vt 0.297030 0.000000
vt 0.297030 1.000000
vt 0.306931 0.000000
vt 0.306931 1.000000
vt 0.316832 0.000000
vt 0.316832 1.000000
vt 0.326733 0.000000
vt 0.326733 1.000000
vt 0.336634 0.000000
vt 0.336634 1.000000
vt 0.346535 0.000000
vt 0.346535 1.000000
vt 0.356436 0.000000
vt 0.356436 1.000000
vt 0.366337 0.000000
vt 0.366337 1.000000
vt 0.376238 0.000000
vt 0.376238 1.000000
vt 0.386139 0.000000
vt 0.386139 1.000000
vt 0.396040 0.000000
vt 0.396040 1.000000
vt 0.405941 0.000000
vt 0.405941 1.000000
vt 0.415842 0.000000
vt 0.415842 1.000000
vt 0.425743 0.000000
vt 0.425743 1.000000
vt 0.435644 0.000000
vt 0.435644 1.000000
vt 0.445545 0.000000
vt 0.445545 1.000000
vt 0.455446 0.000000
vt 0.455446 1.000000
vt 0.465347 0.000000
vt 0.465347 1.000000
vt 0.475248 0.000000
vt 0.475248 1.000000
vt 0.485149 0.000000
vt 0.485149 1.000000
vt 0.495050 0.000000
vt 0.495050 1.000000
vt 0.504951 0.000000
vt 0.504951 1.000000
vt 0.514852 0.000000
vt 0.514852 1.000000
vt 0.524752 0.000000
vt 0.524753 1.000000
vt 0.534654 0.000000
vt 0.534654 1.000000
vt 0.544554 0.000000
vt 0.544555 1.000000
vt 0.554456 0.000000
vt 0.554456 1.000000
vt 0.564356 0.000000
vt 0.564357 1.000000
vt 0.574257 0.000000
vt 0.574257 1.000000
vt 0.584158 0.000000
vt 0.584159 1.000000
vt 0.594059 0.000000
vt 0.594059 1.000000
vt 0.603960 0.000000
vt 0.603961 1.000000
vt 0.613861 0.000000
vt 0.613861 1.000000
vt 0.623762 0.000000
vt 0.623762 1.000000
vt 0.633663 0.000000
vt 0.633663 1.000000
vt 0.643564 0.000000
vt 0.643564 1.000000
vt 0.653465 0.000000
vt 0.653465 1.000000
vt 0.663366 0.000000
vt 0.663366 1.000000
vt 0.673267 0.000000
vt 0.673267 1.000000
vt 0.683168 0.000000
vt 0.683168 1.000000
vt 0.693069 0.000000
vt 0.693069 1.000000
vt 0.702970 0.000000
vt 0.702970 1.000000
vt 0.712871 0.000000
vt 0.712871 1.000000
vt 0.722772 0.000000
vt 0.722772 1.000000
vt 0.732673 0.000000
vt 0.732673 1.000000
vt 0.742574 0.000000
vt 0.742574 1.000000
vt 0.752475 0.000000
vt 0.752475 1.000000
vt 0.762376 0.000000
vt 0.762376 1.000000
vt 0.772277 0.000000
vt 0.772277 1.000000
vt 0.782178 0.000000
vt 0.782178 1.000000
vt 0.792079 0.000000
vt 0.792079 1.000000
vt 0.801980 0.000000
vt 0.801980 1.000000
vt 0.811881 0.000000
vt 0.811881 1.000000
vt 0.821782 0.000000
vt 0.821782 1.000000
vt 0.831683 0.000000
vt 0.831683 1.000000
vt 0.841584 0.000000
vt 0.841584 1.000000
vt 0.851485 0.000000
vt 0.851485 1.000000
vt 0.861386 0.000000
vt 0.861386 1.000000
vt 0.871287 0.000000
vt 0.871287 1.000000
vt 0.881188 0.000000
vt 0.881188 1.000000
vt 0.891089 0.000000
vt 0.891089 1.000000
vt 0.900990 0.000000
vt 0.900990 1.000000
vt 0.910891 0.000000
vt 0.910891 1.000000
vt 0.920792 0.000000
vt 0.920792 1.000000
vt 0.930693 0.000000
vt 0.930693 1.000000
vt 0.940594 0.000000
vt 0.940594 1.000000
vt 0.950495 0.000000
vt 0.950495 1.000000
vt 0.960396 0.000000
vt 0.960396 1.000000
vt 0.970297 0.000000
vt 0.970297 1.000000
vt 0.980198 0.000000
vt 0.980198 1.000000
vn 0.0000 -1.0000 0.0000
usemtl None
s off
f 104/1/1 2/2/1 4/3/1 105/4/1
f 1/5/1 5/6/1 204/7/1 3/8/1
f 5/6/1 6/9/1 203/10/1 204/7/1
f 6/9/1 7/11/1 202/12/1 203/10/1
f 7/11/1 8/13/1 201/14/1 202/12/1
f 8/13/1 9/15/1 200/16/1 201/14/1
f 9/15/1 10/17/1 199/18/1 200/16/1
f 10/17/1 11/19/1 198/20/1 199/18/1
f 11/19/1 12/21/1 197/22/1 198/20/1
f 12/21/1 13/23/1 196/24/1 197/22/1
f 13/23/1 14/25/1 195/26/1 196/24/1
f 14/25/1 15/27/1 194/28/1 195/26/1
f 15/27/1 16/29/1 193/30/1 194/28/1
f 16/29/1 17/31/1 192/32/1 193/30/1
f 17/31/1 18/33/1 191/34/1 192/32/1
f 18/33/1 19/35/1 190/36/1 191/34/1
f 19/35/1 20/37/1 189/38/1 190/36/1
f 20/37/1 21/39/1 188/40/1 189/38/1
f 21/39/1 22/41/1 187/42/1 188/40/1
f 22/41/1 23/43/1 186/44/1 187/42/1
f 23/43/1 24/45/1 185/46/1 186/44/1
f 24/45/1 25/47/1 184/48/1 185/46/1
f 25/47/1 26/49/1 183/50/1 184/48/1
f 26/49/1 27/51/1 182/52/1 183/50/1
f 27/51/1 28/53/1 181/54/1 182/52/1
f 28/53/1 29/55/1 180/56/1 181/54/1
f 29/55/1 30/57/1 179/58/1 180/56/1
f 30/57/1 31/59/1 178/60/1 179/58/1
f 31/59/1 32/61/1 177/62/1 178/60/1
f 32/61/1 33/63/1 176/64/1 177/62/1
f 33/63/1 34/65/1 175/66/1 176/64/1
f 34/65/1 35/67/1 174/68/1 175/66/1
f 35/67/1 36/69/1 173/70/1 174/68/1
f 36/69/1 37/71/1 172/72/1 173/70/1
f 37/71/1 38/73/1 171/74/1 172/72/1
f 38/73/1 39/75/1 170/76/1 171/74/1
f 39/75/1 40/77/1 169/78/1 170/76/1
f 40/77/1 41/79/1 168/80/1 169/78/1
f 41/79/1 42/81/1 167/82/1 168/80/1
f 42/81/1 43/83/1 166/84/1 167/82/1
f 43/83/1 44/85/1 165/86/1 166/84/1
f 44/85/1 45/87/1 164/88/1 165/86/1
f 45/87/1 46/89/1 163/90/1 164/88/1
f 46/89/1 47/91/1 162/92/1 163/90/1
f 47/91/1 48/93/1 161/94/1 162/92/1
f 48/93/1 49/95/1 160/96/1 161/94/1
f 49/95/1 50/97/1 159/98/1 160/96/1
f 50/97/1 51/99/1 158/100/1 159/98/1
f 51/99/1 52/101/1 157/102/1 158/100/1
f 52/101/1 53/103/1 156/104/1 157/102/1
f 53/103/1 54/105/1 155/106/1 156/104/1
f 54/105/1 55/107/1 154/108/1 155/106/1
f 55/107/1 56/109/1 153/110/1 154/108/1
f 56/109/1 57/111/1 152/112/1 153/110/1
f 57/111/1 58/113/1 151/114/1 152/112/1
f 58/113/1 59/115/1 150/116/1 151/114/1
f 59/115/1 60/117/1 149/118/1 150/116/1
f 60/117/1 61/119/1 148/120/1 149/118/1
f 61/119/1 62/121/1 147/122/1 148/120/1
f 62/121/1 63/123/1 146/124/1 147/122/1
f 63/123/1 64/125/1 145/126/1 146/124/1
f 64/125/1 65/127/1 144/128/1 145/126/1
f 65/127/1 66/129/1 143/130/1 144/128/1
f 66/129/1 67/131/1 142/132/1 143/130/1
f 67/131/1 68/133/1 141/134/1 142/132/1
f 68/133/1 69/135/1 140/136/1 141/134/1
f 69/135/1 70/137/1 139/138/1 140/136/1
f 70/137/1 71/139/1 138/140/1 139/138/1
f 71/139/1 72/141/1 137/142/1 138/140/1
f 72/141/1 73/143/1 136/144/1 137/142/1
f 73/143/1 74/145/1 135/146/1 136/144/1
f 74/145/1 75/147/1 134/148/1 135/146/1
f 75/147/1 76/149/1 133/150/1 134/148/1
f 76/149/1 77/151/1 132/152/1 133/150/1
f 77/151/1 78/153/1 131/154/1 132/152/1
f 78/153/1 79/155/1 130/156/1 131/154/1
f 79/155/1 80/157/1 129/158/1 130/156/1
f 80/157/1 81/159/1 128/160/1 129/158/1
f 81/159/1 82/161/1 127/162/1 128/160/1
f 82/161/1 83/163/1 126/164/1 127/162/1
f 83/163/1 84/165/1 125/166/1 126/164/1
f 84/165/1 85/167/1 124/168/1 125/166/1
f 85/167/1 86/169/1 123/170/1 124/168/1
f 86/169/1 87/171/1 122/172/1 123/170/1
f 87/171/1 88/173/1 121/174/1 122/172/1
f 88/173/1 89/175/1 120/176/1 121/174/1
f 89/175/1 90/177/1 119/178/1 120/176/1
f 90/177/1 91/179/1 118/180/1 119/178/1
f 91/179/1 92/181/1 117/182/1 118/180/1
f 92/181/1 93/183/1 116/184/1 117/182/1
f 93/183/1 94/185/1 115/186/1 116/184/1
f 94/185/1 95/187/1 114/188/1 115/186/1
f 95/187/1 96/189/1 113/190/1 114/188/1
f 96/189/1 97/191/1 112/192/1 113/190/1
f 97/191/1 98/193/1 111/194/1 112/192/1
f 98/193/1 99/195/1 110/196/1 111/194/1
f 99/195/1 100/197/1 109/198/1 110/196/1
f 100/197/1 101/199/1 108/200/1 109/198/1
f 101/199/1 102/201/1 107/202/1 108/200/1
f 102/201/1 103/203/1 106/204/1 107/202/1
f 103/203/1 104/1/1 105/4/1 106/204/1
