# Blender v2.83.1 OBJ File: ''
# www.blender.org
mtllib untitled.mtl
o Cone
v 0.000000 -1.000000 -1.000000
v 0.980785 -1.000000 -0.195090
v 1.000000 -1.000000 -0.000000
v 0.497955 -0.496781 0.503112
v -0.503112 -0.496781 0.497955
v 0.503112 -0.496781 -0.497955
v -0.497954 -0.496781 -0.503112
v 0.195090 -1.000000 0.980785
v -0.000000 -1.000000 1.000000
v 0.390235 -0.496781 0.590591
v -0.590591 -0.496781 0.390234
v 0.590591 -0.496781 -0.390235
v -0.390235 -0.496781 -0.590591
v -0.393496 -0.009115 -0.315815
v -0.324323 -0.009115 -0.386514
v 0.000000 1.000000 0.000000
v -0.980785 -1.000000 0.195089
v -1.000000 -1.000000 -0.000001
v 0.393497 -0.009115 0.315815
v -0.315815 -0.009115 0.393496
v 0.315815 -0.009115 -0.393497
v 0.324323 -0.009116 0.386514
v -0.386514 -0.009115 0.324323
v 0.386514 -0.009116 -0.324323
v -0.195089 -1.000000 -0.980786
vt 0.485388 0.296822
vt 0.426162 0.285041
vt 0.429614 0.250000
vt 0.490000 0.250000
vt 0.296822 0.014612
vt 0.285041 0.073837
vt 0.250000 0.070386
vt 0.250000 0.010000
vt 0.250000 0.429614
vt 0.214959 0.426163
vt 0.226376 0.368767
vt 0.250000 0.371094
vt 0.014611 0.203179
vt 0.073837 0.214959
vt 0.070386 0.250000
vt 0.010000 0.250000
vt 0.368767 0.273624
vt 0.371094 0.250000
vt 0.131233 0.226376
vt 0.128906 0.250000
vt 0.273624 0.131233
vt 0.250000 0.128906
vt 0.250000 0.250000
vt 0.203179 0.485389
vt 0.250000 0.490000
vn 0.8079 0.5160 -0.2847
vn 0.2847 0.5160 0.8079
vn -0.6155 0.3837 -0.6884
vn -0.8079 0.5160 0.2847
vn 0.6884 0.3837 -0.6155
vn -0.6884 0.3837 0.6155
vn 0.6155 0.3837 0.6884
vn -0.6399 0.4455 -0.6261
vn 0.6261 0.4455 -0.6399
vn -0.6261 0.4455 0.6399
vn 0.6399 0.4455 0.6261
vn -0.2847 0.5160 -0.8079
usemtl None
s off
f 2/1/1 6/2/1 12/3/1 3/4/1
f 8/5/2 4/6/2 10/7/2 9/8/2
f 13/9/3 7/10/3 14/11/3 15/12/3
f 17/13/4 5/14/4 11/15/4 18/16/4
f 12/3/5 6/2/5 21/17/5 24/18/5
f 11/15/6 5/14/6 20/19/6 23/20/6
f 10/7/7 4/6/7 19/21/7 22/22/7
f 15/12/8 14/11/8 16/23/8
f 24/18/9 21/17/9 16/23/9
f 23/20/10 20/19/10 16/23/10
f 22/22/11 19/21/11 16/23/11
f 25/24/12 7/10/12 13/9/12 1/25/12
