# Blender v2.83.1 OBJ File: ''
# www.blender.org
mtllib HubPlane.mtl
o Cube_Cube.002
v 0.000000 -1.000000 2.828427
v 0.000000 1.000000 2.828427
v 4.385762 1.000000 0.542665
v 4.385762 -1.000000 0.542665
v 2.285762 -1.000000 0.542665
v 2.285762 1.000000 0.542665
v 0.000000 0.815413 2.828427
v 4.385762 0.815413 0.542665
v 2.285762 0.815413 0.542665
v 0.000000 -1.000000 -2.828427
v 0.000000 1.000000 -2.828427
v -2.828427 -1.000000 0.000000
v -2.828427 1.000000 0.000000
v 4.385762 -1.000000 0.000000
v 4.385762 1.000000 -0.542665
v -2.828427 1.000000 0.000000
v 0.000000 1.000000 0.000000
v 4.385762 -1.000000 -0.542665
v 0.000000 -1.000000 0.000000
v -2.828427 -1.000000 0.000000
v 4.385762 1.000000 0.000000
v 2.285762 1.000000 0.000000
v 2.285762 -1.000000 -0.542665
v 2.285762 1.000000 -0.542665
v 2.285762 -1.000000 0.000000
v 0.000000 0.815413 -2.828427
v -2.828427 0.815413 0.000000
v 4.385762 0.815413 -0.542665
v 2.285762 0.815413 -0.542665
vt 0.299886 0.770331
vt 0.000143 0.466458
vt 0.301951 0.468523
vt 0.305153 0.770321
vt 0.245715 0.224224
vt 0.303620 0.224620
vt 0.247248 0.000143
vt 0.305153 0.000539
vt 0.000143 0.466458
vt 0.245715 0.224224
vt 0.247248 0.000143
vt 0.630509 0.428632
vt 0.610736 0.428632
vt 0.610736 0.000143
vt 0.630508 0.000143
vt 0.551011 0.546250
vt 0.305440 0.304016
vt 0.607248 0.301951
vt 0.608916 0.545854
vt 0.630510 0.774904
vt 0.610737 0.774904
vt 0.605183 0.000143
vt 0.610449 0.000199
vt 0.610449 0.769935
vt 0.552544 0.770331
vt 0.824978 0.774904
vt 0.824977 0.999857
vt 0.630510 0.999856
vt 0.610737 0.999856
vt 0.824979 0.428631
vt 0.824979 0.000143
vt 0.630509 0.428632
vt 0.610736 0.428632
vt 0.551011 0.546250
vt 0.305440 0.304016
vt 0.630510 0.774904
vt 0.610737 0.774904
vt 0.552544 0.770331
vt 0.630510 0.999856
vt 0.824977 0.999857
vt 0.824978 0.774904
vt 0.610737 0.999856
vt 0.824979 0.428631
vn 0.0000 1.0000 0.0000
vn -0.7071 0.0000 0.7071
vn 0.0000 -1.0000 0.0000
vn 0.7071 0.0000 0.7071
vn 0.0000 0.0000 1.0000
vn -0.7071 0.0000 -0.7071
vn 0.7071 0.0000 -0.7071
vn 0.0000 0.0000 -1.0000
usemtl Material.001
s off
f 13/1/1 2/2/1 17/3/1 16/4/1
f 2/2/1 6/5/1 22/6/1 17/3/1
f 22/6/1 6/5/1 3/7/1 21/8/1
f 13/1/1 16/4/1 17/3/1 11/9/1
f 11/9/1 17/3/1 22/6/1 24/10/1
f 22/6/1 21/8/1 15/11/1 24/10/1
usemtl Material.002
f 7/12/2 2/13/2 13/14/2 27/15/2
f 5/16/3 1/17/3 19/18/3 25/19/3
f 9/20/4 6/21/4 2/13/4 7/12/4
f 1/17/3 12/22/3 20/23/3 19/18/3
f 5/16/3 25/19/3 14/24/3 4/25/3
f 9/20/5 5/26/5 4/27/5 8/28/5
f 6/21/5 9/20/5 8/28/5 3/29/5
f 5/26/4 9/20/4 7/12/4 1/30/4
f 1/30/2 7/12/2 27/15/2 12/31/2
f 26/32/6 27/15/6 13/14/6 11/33/6
f 23/34/3 25/19/3 19/18/3 10/35/3
f 29/36/7 26/32/7 11/33/7 24/37/7
f 10/35/3 19/18/3 20/23/3 12/22/3
f 23/34/3 18/38/3 14/24/3 25/19/3
f 29/36/8 28/39/8 18/40/8 23/41/8
f 24/37/8 15/42/8 28/39/8 29/36/8
f 23/41/7 10/43/7 26/32/7 29/36/7
f 10/43/6 12/31/6 27/15/6 26/32/6
